<?xml version="1.0"?>
<svg xmlns="http://www.w3.org/2000/svg" xmlns:xlink="http://www.w3.org/1999/xlink" xmlns:svgjs="http://svgjs.com/svgjs" version="1.1" width="512" height="512" x="0" y="0" viewBox="0 0 511 511.99861" style="enable-background:new 0 0 512 512" xml:space="preserve" class=""><g><path xmlns="http://www.w3.org/2000/svg" d="m340.582031 32.234375c-11.5-3.949219-23.847656-3.1875-34.769531 2.152344-10.894531 5.320312-19.070312 14.558593-23.03125 26.011719l-65.265625 175.773437c-.019531.054687-.042969.113281-.0625.171875-.320313.933594-1.257813 1.476562-2.222656 1.300781-.925781-.167969-1.605469-.976562-1.621094-1.925781l-2.59375-190.78125c-.152344-12.15625-5.03125-23.527344-13.734375-32.011719-8.703125-8.488281-20.175781-13.074219-32.347656-12.92187475-12.15625.15234375-23.527344 5.03124975-32.011719 13.73437475-8.488281 8.707031-13.078125 20.191407-12.921875 32.347657l.488281 38.628906c.054688 4.144531 3.441407 7.46875 7.59375 7.40625 4.140625-.054688 7.457031-3.453125 7.40625-7.59375l-.488281-38.628906c-.105469-8.148438 2.972656-15.851563 8.660156-21.6875 5.691406-5.835938 13.3125-9.105469 21.460938-9.207032 8.148437-.109375 15.855468 2.972656 21.691406 8.660156 5.832031 5.691407 9.101562 13.3125 9.207031 21.46875l2.59375 190.785157c.101563 8.089843 5.953125 15.019531 13.910157 16.480469 8.289062 1.519531 16.300781-3.136719 19.082031-11.078126l65.269531-175.78125c.019531-.058593.039062-.117187.0625-.175781 2.644531-7.707031 8.136719-13.921875 15.460938-17.5 7.324218-3.578125 15.601562-4.089843 23.308593-1.441406 15.910157 5.46875 24.40625 22.859375 18.941407 38.773437l-74.328126 216.332032s-49.445312-29.351563-49.449218-29.351563c-10.503906-6.234375-23.289063-8.21875-35.191406-5.503906-3.878907.882813-7.660157 2.226563-11.203126 4.039063l-11.9375-40.910157c-3.652343-12.519531-12.519531-23.144531-24.0625-29.175781-3.570312-1.863281-7.359374-3.261719-11.28125-4.175781-.097656-.023438-.191406-.050781-.292968-.074219l-1.039063-82.042969c-.050781-4.140625-3.421875-7.457031-7.59375-7.40625-4.140625.054688-7.457031 3.453125-7.402343 7.597657l1.023437 80.898437c-3.015625.289063-6.003906.859375-8.933594 1.710937-16.363281 4.777344-28.25 17.542969-32.679687 32.8125-8.585938-7.539062-19.785156-12.027343-31.691406-12.027343-17.417969 0-33.78125 9.699219-42.148438 24.960937-6.167969 11.253906-7.585938 24.234375-3.992188 36.554688l25.265626 86.582031c-.101563 5.742187-.15625 30.429687 5.417968 58.992187 9.839844 50.402344 54.484375 86.988282 106.15625 86.988282 0 0 72.394532.003906 72.398438.003906 47.699218 0 90.722656-32.429688 104.007812-78.167969 7.0625-24.335937 10.464844-45.058593 11.304688-50.5625 12.433594-22.582031 4.765625-51.214843-17.5625-64.46875l-15.933594-9.457031 75.335938-219.277344c8.152343-23.734375-4.523438-49.675781-28.253907-57.832031zm-243.144531 195.136719c4.242188-7.738282 11.246094-13.363282 19.71875-15.835938 13.367188-3.902344 28.179688 1.332032 36.234375 12.675782 2.101563 2.964843 3.726563 6.300781 4.746094 9.789062l13.503906 46.265625c-.304687.316406-.589844.652344-.882813.976563-9.507812 10.480468-13.941406 24.96875-11.953124 38.972656 1.78125 12.527344 8.578124 24.125 18.710937 31.714844-1.832031 2.238281-3.964844 4.210937-6.300781 5.914062-5.519532 4.023438-12.414063 6.167969-19.226563 6.167969-14.578125 0-27.613281-9.78125-31.707031-23.800781l-25.589844-87.695313c-2.472656-8.472656-1.5-17.402344 2.746094-25.144531zm-77.847656 22.71875c5.742187-10.472656 17.054687-17.171875 28.996094-17.171875 14.578124 0 27.613281 9.785156 31.703124 23.800781 0 0 25.578126 87.648438 25.59375 87.695312 4.644532 15.925782-3.730468 33.527344-19.214843 39.84375-17.828125 7.277344-38.84375-2.859374-44.234375-21.328124l-25.589844-87.699219c-2.472656-8.472657-1.496094-17.402344 2.746094-25.140625zm281.691406 179.558594c-11.445312 39.433593-48.53125 67.351562-89.601562 67.351562l-72.394532-.003906c-44.515625 0-82.96875-31.484375-91.4375-74.863282-2.230468-11.429687-3.507812-22.3125-4.230468-31.4375.039062.03125.078124.058594.117187.089844 12.144531 9.992188 28.792969 13.414063 43.882813 9.011719 15.472656-4.511719 27.882812-16.914063 32.535156-32.320313.046875-.160156.109375-.320312.15625-.480468.019531.015625.042968.035156.066406.054687 6.367188 5.574219 14.1875 9.4375 22.492188 11.070313 7.414062 1.457031 15.273437 1.097656 22.597656-1.042969 9.84375-2.875 18.753906-8.976563 24.90625-17.195313 0 0 70.007812 41.554688 70.011718 41.554688 14.179688 8.417969 31.996094 8.875 46.617188 1.285156.40625-.210937.820312-.40625 1.222656-.628906-1.707031 7.910156-3.988281 17.394531-6.941406 27.554688zm12.042969-52.660157c-8.949219 15.078125-28.992188 20.53125-44.359375 12.078125-.3125-.171875-77.199219-45.800781-77.210938-45.808594-9.882812-5.863281-18.390625-15.671874-18.390625-27.871093-.636719-10.84375 4.40625-21.722657 13.085938-28.253907.007812-.007812.019531-.015624.027343-.019531 10.585938-7.679687 25.28125-8.839843 36.738282-2.039062l78.558594 46.628906c15.671874 9.300781 20.851562 29.617187 11.550781 45.285156zm0 0" fill="#aaaaaa" data-original="#000000" style="" class=""/></g></svg>
