<?xml version="1.0"?>
<svg xmlns="http://www.w3.org/2000/svg" xmlns:xlink="http://www.w3.org/1999/xlink" xmlns:svgjs="http://svgjs.com/svgjs" version="1.1" width="512" height="512" x="0" y="0" viewBox="0 0 512 512" style="enable-background:new 0 0 512 512" xml:space="preserve" class=""><g transform="matrix(-1,0,0,1,512.090425491333,0)">
  <g xmlns="http://www.w3.org/2000/svg">
    <g>
      <path d="m128.7,501c-49.5,0-92.6-28.3-109.9-72.1-11.5-29.2-10.2-61.3 3.7-90.5 13.7-28.7 37.9-51.1 68.3-63.1 15.3-6.1 31.3-9.1 47.5-9.1 27.9,0 54.5,9.2 75.3,25.7 29.4-24.9 56.1-50.5 79.5-76.5-27.6-33.5-35-81.1-17.8-124.6 18.9-47.7 64.2-79.8 113-79.8 14,0 27.7,2.6 40.7,7.8 59.7,23.6 87.9,94.3 63,157.6 0,0-7.9,19.5-8.6,20.6-133.5,209-274.3,279.1-289.2,286.1-25.6,15-49.2,17.9-65.5,17.9zm9.6-194c-11.1,0-22,2.1-32.5,6.3-20.8,8.2-37.3,23.4-46.5,42.7-9,18.8-9.9,39.4-2.6,58 11.1,28.1 39.3,46.3 72,46.3 28.1,0 46.9-13.5 47.6-13.8 1.4-0.6 140.8-65.8 271.6-269.8l6.1-15.3c16.7-42.3-1.2-89.3-40-104.6-8.2-3.2-16.8-4.9-25.7-4.9-32.1,0-62.2,21.7-75,53.9-13.2,33.5-4.7,71.9 20.8,93.2 10.4,8.7 7.9,22.7 2.4,28.9-31.9,36.1-68.5,72.7-110.8,107.1-8.5,6.9-20.9,5.9-28.1-2.3-14.5-16.4-36.1-25.7-59.3-25.7z" fill="#0090e4" data-original="#000000" style="" class=""/>
    </g>
  </g>
</g></svg>
